# xmcd CD database file
#
# Track frame offsets:
#	150
#	130508
#	265532
#
# Disc length: 4699 seconds
#
# Revision: 0
# Processed by: cddbd v1.5.2PL0 Copyright (c) Steve Scherf et al.
# Submitted via: CDex 1.51
#
DISCID=1a125903
DTITLE=Various Artist - Der Frankfurt Sound [CD 1)
DYEAR=2003
DGENRE=Jazz
TTITLE0=Das Deutsche Jazz-Festival Frankfurt
TTITLE1=Jazz unterm Hakenkreuz
TTITLE2=Leben in der Frankfurter Jazzszene I
EXTD=YEAR: 2003
EXTT0=
EXTT1=
EXTT2=
PLAYORDER=
